<svg width="24" height="24" viewBox="0 0 24 24" fill="none" xmlns="http://www.w3.org/2000/svg">
<path fill-rule="evenodd" clip-rule="evenodd" d="M6.75 12.75C6.75 12.3358 7.08579 12 7.5 12H16.5C16.9142 12 17.25 12.3358 17.25 12.75C17.25 13.1642 16.9142 13.5 16.5 13.5H7.5C7.08579 13.5 6.75 13.1642 6.75 12.75Z" fill="#9C9C9C"/>
<path fill-rule="evenodd" clip-rule="evenodd" d="M7.5 4.5C6.90326 4.5 6.33097 4.73705 5.90901 5.15901C5.48705 5.58097 5.25 6.15326 5.25 6.75V9C5.25 9.41421 4.91421 9.75 4.5 9.75C4.08579 9.75 3.75 9.41421 3.75 9V6.75C3.75 5.75544 4.14509 4.80161 4.84835 4.09835C5.55161 3.39509 6.50544 3 7.5 3H16.5C17.4946 3 18.4484 3.39509 19.1517 4.09835C19.8549 4.80161 20.25 5.75544 20.25 6.75V9C20.25 9.41421 19.9142 9.75 19.5 9.75C19.0858 9.75 18.75 9.41421 18.75 9V6.75C18.75 6.15326 18.5129 5.58097 18.091 5.15901C17.669 4.73705 17.0967 4.5 16.5 4.5H7.5Z" fill="#9C9C9C"/>
<path fill-rule="evenodd" clip-rule="evenodd" d="M3.76841 8.32206C4.49584 8.17736 5.24984 8.25162 5.93506 8.53545C6.62029 8.81928 7.20596 9.29993 7.61801 9.91661C8.03007 10.5333 8.25 11.2583 8.25 12V15.75C8.25 16.1642 7.91422 16.5 7.5 16.5C7.08579 16.5 6.75 16.1642 6.75 15.75V12C6.75 11.555 6.61804 11.12 6.37081 10.75C6.12357 10.38 5.77217 10.0916 5.36104 9.92127C4.94991 9.75098 4.49751 9.70642 4.06105 9.79323C3.62459 9.88005 3.22368 10.0943 2.90901 10.409C2.59434 10.7237 2.38005 11.1246 2.29323 11.561C2.20642 11.9975 2.25098 12.4499 2.42127 12.861C2.59157 13.2722 2.87996 13.6236 3.24997 13.8708C3.61998 14.118 4.05499 14.25 4.5 14.25C4.91422 14.25 5.25 14.5858 5.25 15V18.75H18.75V15C18.75 14.5858 19.0858 14.25 19.5 14.25C19.945 14.25 20.38 14.118 20.75 13.8708C21.12 13.6236 21.4084 13.2722 21.5787 12.861C21.749 12.4499 21.7936 11.9975 21.7068 11.561C21.62 11.1246 21.4057 10.7237 21.091 10.409C20.7763 10.0943 20.3754 9.88005 19.939 9.79323C19.5025 9.70642 19.0501 9.75098 18.639 9.92127C18.2278 10.0916 17.8764 10.38 17.6292 10.75C17.382 11.12 17.25 11.555 17.25 12V15.75C17.25 16.1642 16.9142 16.5 16.5 16.5C16.0858 16.5 15.75 16.1642 15.75 15.75V12C15.75 11.2583 15.9699 10.5333 16.382 9.91661C16.794 9.29993 17.3797 8.81928 18.0649 8.53545C18.7502 8.25162 19.5042 8.17736 20.2316 8.32206C20.959 8.46675 21.6272 8.8239 22.1517 9.34835C22.6761 9.8728 23.0333 10.541 23.1779 11.2684C23.3226 11.9958 23.2484 12.7498 22.9646 13.4351C22.6807 14.1203 22.2001 14.706 21.5834 15.118C21.1772 15.3894 20.724 15.5775 20.25 15.6742V18.75C20.25 19.1478 20.092 19.5294 19.8107 19.8107C19.5294 20.092 19.1478 20.25 18.75 20.25H5.25C4.85218 20.25 4.47065 20.092 4.18934 19.8107C3.90804 19.5294 3.75 19.1478 3.75 18.75V15.6742C3.276 15.5775 2.82281 15.3894 2.41661 15.118C1.79993 14.706 1.31928 14.1203 1.03545 13.4351C0.751625 12.7498 0.677362 11.9958 0.822057 11.2684C0.966751 10.541 1.3239 9.8728 1.84835 9.34835C2.3728 8.8239 3.04098 8.46675 3.76841 8.32206Z" fill="#9C9C9C"/>
</svg>
