<svg width="100%" height="100%" viewBox="0 0 31 31" fill="none" xmlns="http://www.w3.org/2000/svg" fit="" preserveAspectRatio="xMidYMid meet" focusable="false">
          <path d="M17.3209 15.5L22.8751 9.95876C23.1183 9.71553 23.255 9.38565 23.255 9.04167C23.255 8.6977 23.1183 8.36781 22.8751 8.12459C22.6319 7.88136 22.302 7.74472 21.958 7.74472C21.614 7.74472 21.2842 7.88136 21.0409 8.12459L15.4997 13.6788L9.95843 8.12459C9.7152 7.88136 9.38532 7.74472 9.04134 7.74472C8.69737 7.74472 8.36749 7.88136 8.12426 8.12459C7.88103 8.36781 7.74439 8.6977 7.74439 9.04167C7.74439 9.38565 7.88103 9.71553 8.12426 9.95876L13.6784 15.5L8.12426 21.0413C8.00319 21.1613 7.9071 21.3042 7.84153 21.4616C7.77595 21.619 7.74219 21.7878 7.74219 21.9583C7.74219 22.1289 7.77595 22.2977 7.84153 22.4551C7.9071 22.6125 8.00319 22.7553 8.12426 22.8754C8.24434 22.9965 8.3872 23.0926 8.5446 23.1582C8.702 23.2237 8.87083 23.2575 9.04134 23.2575C9.21186 23.2575 9.38069 23.2237 9.53809 23.1582C9.69549 23.0926 9.83835 22.9965 9.95843 22.8754L15.4997 17.3213L21.0409 22.8754C21.161 22.9965 21.3039 23.0926 21.4613 23.1582C21.6187 23.2237 21.7875 23.2575 21.958 23.2575C22.1285 23.2575 22.2974 23.2237 22.4548 23.1582C22.6122 23.0926 22.755 22.9965 22.8751 22.8754C22.9962 22.7553 23.0923 22.6125 23.1578 22.4551C23.2234 22.2977 23.2572 22.1289 23.2572 21.9583C23.2572 21.7878 23.2234 21.619 23.1578 21.4616C23.0923 21.3042 22.9962 21.1613 22.8751 21.0413L17.3209 15.5Z" fill="currentColor"></path>
        </svg>