<svg width="100%" height="100%" viewBox="0 0 22 22" fill="none" xmlns="http://www.w3.org/2000/svg" fit="" preserveAspectRatio="xMidYMid meet" focusable="false">
                                  <path d="M11.8222 20.1373C11.3364 20.1392 10.8689 19.9448 10.5261 19.6002L3.34216 12.4181C3.15486 12.2314 3.01032 12.0063 2.91853 11.7583C2.82673 11.5103 2.78987 11.2453 2.81049 10.9817L3.26883 4.96283C3.30049 4.52465 3.48931 4.11263 3.80055 3.80257C4.11179 3.4925 4.52452 3.30525 4.96283 3.27525L10.9817 2.81691C11.0293 2.80683 11.0761 2.80683 11.1237 2.80683C11.6096 2.80683 12.0743 2.99933 12.4162 3.344L19.6011 10.5252C19.7714 10.6954 19.9065 10.8976 19.9987 11.12C20.0909 11.3425 20.1383 11.581 20.1383 11.8218C20.1383 12.0626 20.0909 12.3011 19.9987 12.5235C19.9065 12.746 19.7714 12.9482 19.6011 13.1184L13.1184 19.6002C12.9486 19.7709 12.7466 19.9064 12.5241 19.9986C12.3016 20.0908 12.0631 20.1379 11.8222 20.1373ZM7.93283 6.0995C7.63135 6.09958 7.33454 6.17402 7.06869 6.31621C6.80284 6.4584 6.57617 6.66395 6.40873 6.91467C6.2413 7.16539 6.13829 7.45353 6.10881 7.75356C6.07933 8.0536 6.12429 8.35628 6.23973 8.63479C6.35516 8.9133 6.5375 9.15904 6.77058 9.35025C7.00367 9.54146 7.28032 9.67224 7.57602 9.731C7.87172 9.78977 8.17735 9.7747 8.46584 9.68713C8.75432 9.59957 9.01676 9.44221 9.22991 9.229L9.23633 9.2235L9.24274 9.21708L9.23541 9.2235C9.49023 8.96643 9.66326 8.63969 9.73268 8.28445C9.8021 7.92921 9.76481 7.56136 9.62551 7.22728C9.48621 6.8932 9.25113 6.60782 8.94991 6.40713C8.64868 6.20643 8.29479 6.09939 7.93283 6.0995Z" fill="currentColor"></path>
                                </svg>