<svg width="100%" height="100%" viewBox="0 0 22 22" fill="none" xmlns="http://www.w3.org/2000/svg" fit="" preserveAspectRatio="xMidYMid meet" focusable="false">
                          <g clip-path="url('/izmir/etkinlik/aliaga-petkimspor-destek-maclari#clip0_108_147')">
                            <path d="M0 3.09497V18.9051H5.3387C5.94437 15.5404 3.3202 12.2186 1.53692 10.404C1.89057 10.3178 2.30293 10.1733 2.75613 9.93341C3.43165 9.5758 4.07595 9.07767 4.68716 8.44305C5.10701 8.82766 5.6663 9.06251 6.28053 9.06251C6.885 9.06251 7.43618 8.83496 7.85369 8.46118C8.27121 8.83496 8.82239 9.06251 9.42686 9.06251C10.0313 9.06251 10.5825 8.83496 11 8.46118C11.4176 8.83496 11.9687 9.06251 12.5732 9.06251C13.1777 9.06251 13.7288 8.83496 14.1464 8.46118C14.5639 8.83496 15.1151 9.06251 15.7195 9.06251C16.3338 9.06251 16.8931 8.82766 17.3129 8.44305C17.9241 9.07767 18.5684 9.5758 19.2439 9.93341C19.6971 10.1734 20.1094 10.3178 20.4631 10.404C18.6799 12.2186 16.0557 15.5404 16.6614 18.9051H22.0001V3.09497H0Z" fill="currentColor"></path>
                          </g>
                          <defs>
                            <clipPath id="clip0_108_147">
                              <rect width="22" height="22" fill="white"></rect>
                            </clipPath>
                          </defs>
                        </svg>