<svg width="170" height="48" viewBox="0 0 170 48" fill="none" xmlns="http://www.w3.org/2000/svg">
<g clip-path="url(#clip0_2031_941)">
<path d="M92.6555 16.307C92.5211 16.3801 92.3819 16.4462 92.1603 16.557V6.65137H86.4008C86.3838 6.73785 86.372 6.82527 86.3654 6.91316C86.3654 13.4674 86.297 20.024 86.4032 26.5759C86.4527 29.7245 87.8654 32.34 90.4126 34.2528C93.0871 36.2599 96.1485 36.8235 99.3961 36.3188C108.007 34.9816 110.903 25.6726 106.707 19.4886C103.639 14.9674 97.547 13.6325 92.6555 16.307ZM97.4621 31.3684C94.2687 31.3684 91.9338 28.8801 91.9786 25.5476C91.9785 24.8272 92.1219 24.1141 92.4004 23.4497C92.6789 22.7853 93.0869 22.1831 93.6007 21.6781C94.1144 21.1732 94.7236 20.7756 95.3927 20.5086C96.0617 20.2416 96.7773 20.1105 97.4975 20.1231C100.623 20.1561 102.948 22.5712 102.922 25.7551C102.896 28.9391 100.535 31.3849 97.4621 31.3684Z" fill="white"/>
<path d="M55.3841 20.7146C55.2897 20.6344 55.2024 20.5448 55.1034 20.4505L55.5091 20.1038C57.2756 18.592 58.2685 16.6816 58.3109 14.349C58.3699 11.2618 57.0232 8.87263 54.502 7.13914C52.5562 5.79951 50.3534 5.33253 48.0279 5.33017C44.3204 5.33017 40.6128 5.33017 36.9053 5.33017C36.7614 5.33017 36.6152 5.33017 36.4477 5.34904V24.2453L28.6647 6.9198C27.8499 5.11164 26.3512 3.70044 24.4973 2.99569C22.6435 2.29094 20.5858 2.35016 18.7756 3.16036L18.3958 3.33725C17.4083 1.84495 15.9226 0.752089 14.204 0.253701C12.4853 -0.244687 10.6455 -0.116177 9.01276 0.616297C7.38006 1.34877 6.06075 2.63755 5.29025 4.25265C4.51975 5.86775 4.34821 7.70408 4.80622 9.43395L4.41471 9.61084C2.60613 10.4252 1.19452 11.9239 0.489698 13.7779C-0.215123 15.6319 -0.155573 17.6898 0.655278 19.5L10.2095 40.7665C11.0248 42.5742 12.5237 43.9849 14.3775 44.6892C16.2313 45.3935 18.2887 45.3339 20.0987 44.5236L20.4902 44.3467C21.4822 45.8285 22.9669 46.9112 24.681 47.4028C26.3952 47.8944 28.228 47.7632 29.8546 47.0324C31.4812 46.3016 32.7965 45.0185 33.5673 43.4105C34.3382 41.8024 34.5147 39.9734 34.0657 38.2476L34.4595 38.0707C35.3074 37.6908 36.0763 37.1548 36.726 36.4906H38.0138C41.6624 36.4906 45.3109 36.533 48.9572 36.4599C51.7591 36.4056 54.2213 35.4104 56.1624 33.3207C59.6506 29.5755 59.2991 24.0023 55.3841 20.7146ZM42.8841 11.0448C42.9405 11.0242 42.999 11.01 43.0586 11.0023C44.8911 11.0023 46.7237 10.9764 48.5539 11.0189C49.4357 11.0295 50.2793 11.3808 50.908 11.9994C51.5366 12.6179 51.9016 13.4557 51.9265 14.3373C51.9878 16.2948 50.7001 17.875 48.7803 17.9906C46.8605 18.1061 44.8864 18.0141 42.8841 18.0141V11.0448ZM33.41 35.7382L31.9501 36.3939C31.6407 36.533 31.3991 36.7892 31.2784 37.1062C31.1577 37.4232 31.1677 37.7752 31.3062 38.0849C31.5855 38.6842 31.743 39.3331 31.7694 39.9938C31.7958 40.6544 31.6906 41.3138 31.46 41.9335C31.2294 42.5532 30.878 43.1209 30.4261 43.6036C29.9742 44.0863 29.431 44.4744 28.8278 44.7454C28.2247 45.0163 27.5737 45.1647 26.9127 45.1819C26.2517 45.1991 25.5939 45.0848 24.9774 44.8456C24.361 44.6064 23.7982 44.2471 23.3219 43.7886C22.8455 43.33 22.465 42.7814 22.2024 42.1745C22.0629 41.8673 21.8077 41.6276 21.4924 41.5075C21.1771 41.3874 20.8271 41.3965 20.5185 41.533L19.0586 42.1887C18.4686 42.4544 17.832 42.6012 17.1853 42.6208C16.5385 42.6404 15.8943 42.5323 15.2893 42.3028C14.6843 42.0732 14.1305 41.7267 13.6595 41.283C13.1886 40.8393 12.8096 40.3072 12.5444 39.717L4.21424 21.1745L8.79679 19.1156C9.1061 18.9764 9.34746 18.72 9.46777 18.4029C9.58807 18.0858 9.57747 17.7338 9.4383 17.4245C9.29912 17.1152 9.04277 16.8738 8.72564 16.7535C8.40851 16.6332 8.05657 16.6438 7.74726 16.783L3.16471 18.8396L2.99018 18.4528C2.45706 17.2619 2.41786 15.9082 2.88119 14.6884C3.34451 13.4687 4.27255 12.4824 5.46188 11.9457L6.92415 11.2901C7.07756 11.2215 7.21592 11.1232 7.33126 11.001C7.4466 10.8788 7.53667 10.735 7.59627 10.5779C7.65588 10.4207 7.68386 10.2534 7.67861 10.0854C7.67336 9.91742 7.63497 9.75214 7.56566 9.59904C7.02334 8.39149 6.98293 7.01797 7.45332 5.78063C7.92371 4.54328 8.86636 3.54348 10.0739 3.00116C11.2815 2.45885 12.655 2.41844 13.8923 2.88883C15.1297 3.35922 16.1295 4.30187 16.6718 5.50942C16.7404 5.66284 16.8386 5.80119 16.9608 5.91653C17.0831 6.03188 17.2269 6.12194 17.384 6.18155C17.5411 6.24116 17.7085 6.26914 17.8765 6.26388C18.0444 6.25863 18.2097 6.22024 18.3628 6.15093L19.8227 5.49527C21.0136 4.96215 22.3673 4.92295 23.5871 5.38627C24.8069 5.8496 25.7932 6.77764 26.3298 7.96697L26.5043 8.35612L21.9336 10.4151C21.7804 10.484 21.6423 10.5824 21.5272 10.7047C21.4121 10.827 21.3222 10.9707 21.2626 11.1277C21.203 11.2848 21.175 11.452 21.18 11.6199C21.1851 11.7877 21.2232 11.953 21.2921 12.1061C21.361 12.2593 21.4594 12.3974 21.5817 12.5125C21.7039 12.6276 21.8477 12.7175 22.0047 12.7771C22.1618 12.8367 22.329 12.8647 22.4969 12.8597C22.6647 12.8546 22.83 12.8165 22.9831 12.7476L27.5633 10.691L35.8935 29.2311C36.4259 30.4235 36.4634 31.7784 35.9977 32.9984C35.5321 34.2183 34.6014 35.2037 33.41 35.7382ZM48.9548 30.7712C47.101 30.8891 45.2378 30.8278 43.377 30.8443H42.8817V23.7547C42.9789 23.7344 43.0774 23.721 43.1765 23.7146C44.9171 23.7146 46.66 23.7146 48.4006 23.7146C50.2072 23.7311 51.5468 24.6745 52.0091 26.2217C52.6553 28.3915 51.2095 30.625 48.9548 30.7712Z" fill="white"/>
<path d="M138.347 31.1039L151.165 18.2855C150.988 18.0497 150.835 17.8138 150.653 17.5992C147.293 13.71 143 12.4813 138.09 13.4648C133.962 14.2926 130.986 16.7501 129.363 20.6582C127.351 25.5308 128.717 30.9482 132.701 34.1558C135.922 36.7501 139.625 37.4931 143.59 36.5143C148.408 35.335 151.517 32.2926 152.686 27.4105C152.833 26.6305 152.939 25.8432 153.002 25.052H147.13C146.934 30.4482 141.833 32.6817 138.347 31.1039ZM136.203 20.3162C138.156 18.3515 141.085 18.0756 143.014 18.9011L134.705 27.21C134.021 25.7997 133.979 22.5567 136.203 20.3162Z" fill="white"/>
<path d="M83.1745 13.6104H76.691V14.1929C76.7806 18.1111 76.8081 22.0278 76.7735 25.9429C76.7499 28.792 75.0613 31.1316 72.0259 31.2637C70.349 31.3321 68.9245 30.8061 67.8796 29.4335C67.073 28.3698 66.7735 27.141 66.7712 25.8297C66.7712 21.9429 66.7712 18.0467 66.6815 14.1693V13.7896H60.4245V14.1835C60.349 18.0121 60.3278 21.8399 60.3608 25.667C60.3598 26.5738 60.4443 27.4788 60.6131 28.3698C61.3443 32.0396 63.4056 34.6622 66.9079 36.0561C69.4575 37.0726 72.0966 37.1622 74.7664 36.6104C76.9641 36.1973 78.9666 35.0777 80.4693 33.4217C82.3749 31.299 83.1485 28.7754 83.1815 26.0042C83.2263 22.0278 83.1933 18.0514 83.1815 14.075C83.1957 13.9311 83.1745 13.6104 83.1745 13.6104Z" fill="white"/>
<path d="M170 19.3394V13.6106H163.396V5.75684C163.321 5.75684 163.285 5.75684 163.264 5.75684C161.231 6.83467 159.196 7.90778 157.172 9.00212C157.11 9.05544 157.06 9.12126 157.026 9.19525C156.991 9.26924 156.973 9.34971 156.972 9.43136C156.953 10.3748 156.972 11.337 156.972 12.2922V13.6083H152.83V19.3394H157.12V19.8583C157.12 21.9809 157.09 24.0823 157.12 26.1932C157.163 28.4856 157.74 30.6248 159.141 32.4927C160.847 34.7663 163.165 36.0116 165.922 36.4762C166.894 36.6413 167.889 36.6719 168.91 36.7663V30.9243L168.439 30.9031C165.394 30.8276 163.54 28.9243 163.535 25.87C163.535 23.8606 163.535 21.8504 163.535 19.8394V19.3394H170Z" fill="white"/>
<path d="M120.307 36.491H126.564V3.95801H120.307V36.491Z" fill="white"/>
<path d="M110.653 36.4906H116.91V13.6133H110.653V36.4906Z" fill="white"/>
<path d="M113.733 3.69064C113.224 3.69204 112.721 3.79353 112.252 3.98931C111.783 4.1851 111.358 4.47135 110.999 4.83173C110.641 5.1921 110.357 5.61954 110.164 6.08964C109.97 6.55974 109.872 7.06329 109.873 7.57154C109.874 8.07979 109.976 8.5828 110.172 9.05183C110.368 9.52086 110.654 9.94673 111.014 10.3051C111.375 10.6635 111.802 10.9475 112.272 11.1407C112.742 11.3339 113.246 11.4326 113.754 11.4312C114.262 11.4332 114.765 11.3336 115.234 11.1383C115.702 10.9431 116.127 10.656 116.484 10.2941C116.84 9.93219 117.12 9.5027 117.308 9.03089C117.496 8.55908 117.587 8.05449 117.577 7.54678C117.584 7.03946 117.489 6.53587 117.299 6.06566C117.108 5.59544 116.826 5.1681 116.467 4.80879C116.109 4.44948 115.683 4.16545 115.213 3.97342C114.743 3.7814 114.24 3.68525 113.733 3.69064Z" fill="white"/>
<path d="M12.6675 16.9671C12.9847 17.0874 13.3366 17.0772 13.6463 16.9388L18.1274 14.927C18.4259 14.7808 18.6559 14.5243 18.7688 14.2117C18.8817 13.8991 18.8686 13.5549 18.7324 13.2517C18.5961 12.9486 18.3473 12.7102 18.0386 12.5872C17.7298 12.4641 17.3853 12.4658 17.0779 12.5921L12.5967 14.6039C12.3669 14.7079 12.173 14.8777 12.0395 15.0917C11.9059 15.3057 11.8387 15.5545 11.8463 15.8067C11.8538 16.0588 11.9359 16.3031 12.082 16.5088C12.2281 16.7144 12.4318 16.8723 12.6675 16.9623V16.9671Z" fill="white"/>
<path d="M24.811 16.5964C24.6538 16.5366 24.4864 16.5083 24.3183 16.5132C24.1502 16.5182 23.9847 16.5563 23.8313 16.6253C23.678 16.6943 23.5397 16.7929 23.4245 16.9154C23.3094 17.038 23.2195 17.182 23.1601 17.3394L15.5657 37.3488C15.4453 37.6659 15.4558 38.0179 15.5949 38.3273C15.734 38.6367 15.9903 38.8782 16.3075 38.9986C16.6246 39.119 16.9766 39.1085 17.286 38.9694C17.5954 38.8303 17.8368 38.574 17.9572 38.2568L25.561 18.2474C25.6207 18.0898 25.6486 17.9219 25.6432 17.7535C25.6378 17.5851 25.5991 17.4194 25.5294 17.2659C25.4597 17.1125 25.3603 16.9743 25.237 16.8594C25.1138 16.7445 24.969 16.6552 24.811 16.5964Z" fill="white"/>
<path d="M17.8937 26.7876C18.227 25.9154 18.294 24.9639 18.0861 24.0536C17.8782 23.1433 17.4049 22.3152 16.7261 21.6742C16.0472 21.0331 15.1934 20.608 14.2727 20.4525C13.352 20.2971 12.4059 20.4184 11.5542 20.8011C10.7026 21.1838 9.98361 21.8106 9.48845 22.6022C8.99328 23.3938 8.74419 24.3145 8.77271 25.2478C8.80123 26.181 9.10608 27.0849 9.64865 27.8447C10.1912 28.6046 10.9471 29.1864 11.8206 29.5163C12.9879 29.9573 14.2825 29.9178 15.4207 29.4063C16.559 28.8949 17.4482 27.9532 17.8937 26.7876ZM15.5022 25.8772C15.3524 26.2753 15.0878 26.62 14.7419 26.8676C14.3961 27.1152 13.9845 27.2546 13.5593 27.2681C13.1342 27.2815 12.7146 27.1685 12.3537 26.9433C11.9929 26.7182 11.707 26.3909 11.5323 26.0031C11.3575 25.6153 11.3019 25.1843 11.3723 24.7648C11.4427 24.3453 11.6361 23.9562 11.9279 23.6467C12.2196 23.3372 12.5967 23.1212 13.0114 23.0262C13.426 22.9312 13.8595 22.9614 14.2569 23.113C14.7878 23.3155 15.2168 23.72 15.4502 24.238C15.6836 24.756 15.7023 25.3454 15.5022 25.8772Z" fill="white"/>
<path d="M29.436 26.137C28.5638 25.8037 27.6123 25.7367 26.7021 25.9445C25.7918 26.1524 24.9637 26.6257 24.3226 27.3046C23.6816 27.9834 23.2564 28.8373 23.101 29.758C22.9455 30.6786 23.0669 31.6247 23.4495 32.4764C23.8322 33.3281 24.459 34.047 25.2506 34.5422C26.0422 35.0374 26.963 35.2865 27.8962 35.2579C28.8295 35.2294 29.7333 34.9246 30.4932 34.382C31.2531 33.8394 31.8348 33.0835 32.1648 32.2101C32.6058 31.0427 32.5662 29.7482 32.0548 28.6099C31.5433 27.4716 30.6017 26.5824 29.436 26.137ZM29.7733 31.3021C29.6228 31.7002 29.3574 32.0446 29.0109 32.2917C28.6644 32.5388 28.2523 32.6774 27.8269 32.6899C27.4015 32.7025 26.9819 32.5884 26.6214 32.3622C26.2609 32.136 25.9757 31.8078 25.802 31.4192C25.6283 31.0307 25.5739 30.5993 25.6457 30.1798C25.7175 29.7604 25.9122 29.3716 26.2053 29.063C26.4983 28.7543 26.8764 28.5396 27.2916 28.4462C27.7068 28.3527 28.1404 28.3846 28.5374 28.5379C29.0662 28.7427 29.4926 29.148 29.7241 29.6657C29.9555 30.1833 29.9732 30.7714 29.7733 31.3021Z" fill="white"/>
</g>
<defs>
<clipPath id="clip0_2031_941">
<rect width="170" height="47.6792" fill="white"/>
</clipPath>
</defs>
</svg>
